<?xml version="1.0" encoding="UTF-8"?>
<svg id="Capa_2" data-name="Capa 2" xmlns="http://www.w3.org/2000/svg" viewBox="0 0 281.99 217.29">
  <defs>
    <style>
      .cls-1 {
        fill: #f9ad17;
      }

      .cls-2 {
        fill: #3d2669;
      }
    </style>
  </defs>
  <g id="Capa_1-2" data-name="Capa 1">
    <g>
      <polygon class="cls-1" points="197.93 185.93 0 185.93 55.7 0 253.63 0 197.93 185.93"/>
      <polygon class="cls-1" points="226.29 217.29 28.36 217.29 84.06 31.36 281.99 31.36 226.29 217.29"/>
      <polygon class="cls-2" points="210.93 201.93 13 201.93 68.7 16 266.63 16 210.93 201.93"/>
      <g>
        <path class="cls-1" d="M51.33,168.56l127.13-6.33c4.12-3.65,6.59-7.66,7.34-8.97l-134.08,15.22-.38.08Z"/>
        <path class="cls-1" d="M51.28,168.52l-.02.03v.02h0l-.19.47s94.55-.07,110.55,0c6.58.03,11.87-2.71,15.83-5.93l-126.11,5.46h-.02s.02,0,.02,0h-.07s.08,0,.08,0l.34-.07-.36.04.4-.05,139.8-29.32,5.8-14.48-146.04,43.84Z"/>
        <polygon class="cls-1" points="186.38 151.96 190.93 140.61 51.76 168.48 186.38 151.96"/>
        <path class="cls-1" d="M51.28,168.52h.03s70.13-34.11,70.13-34.11c-14.53-.04-30.01-.08-39.09-.1l-31.07,34.21Z"/>
        <path class="cls-1" d="M91.58,123.14l26.91-30.31,3.74-9.07h4.32l30.97-34.88c-17.06,0-32.32.01-39.09.06-4.59.13-8.39,1.03-11.54,2.35l-34.12,71.84h18.8Z"/>
        <path class="cls-1" d="M209.41,94.5h-2.16l-60.34,28.64h14.28l-4.21,11.37s-15.94-.05-33.82-.1l-71.86,34.1,146.78-45.75,11.32-28.26Z"/>
        <path class="cls-1" d="M103.56,52.98c-8.19,4.89-10.6,12.46-10.6,12.46l-23.37,57.7h2.2l31.78-70.16Z"/>
        <path class="cls-1" d="M61.38,142.93l-9.87,24.99,13.58-29.99c-2.8,2.36-3.71,5-3.71,5Z"/>
        <path class="cls-1" d="M81.67,134.31c-2.39,0-4.3,0-5.55,0-4.51,0-7.72,1.26-9.98,2.82l-14.7,30.96-.17.44h.01s30.39-34.22,30.39-34.22Z"/>
        <polygon class="cls-1" points="203.49 94.5 118.51 94.5 92.5 123.14 144.61 123.14 203.49 94.5"/>
        <path class="cls-1" d="M207.09,83.76c7.58,0,10.53-8.42,10.53-8.42l10.95-26.39s-36.87-.06-68.64-.06l-31.68,34.88h78.83Z"/>
      </g>
    </g>
  </g>
</svg>