<?xml version="1.0" encoding="UTF-8"?>
<svg id="Capa_2" data-name="Capa 2" xmlns="http://www.w3.org/2000/svg" viewBox="0 0 461.22 85.67">
  <defs>
    <style>
      .cls-1 {
        fill: #fff;
      }
    </style>
  </defs>
  <g id="Capa_1-2" data-name="Capa 1">
    <g>
      <path class="cls-1" d="M409.13,64.98l26.36-1.31c3.31-8.08,7.67-18.8,11.85-29.11l-27.14,3.08-11.07,27.35Z"/>
      <path class="cls-1" d="M362.79.3s-13.42-.29-18.85,12.93L405.59.3h-42.8Z"/>
      <path class="cls-1" d="M424.85.3l-82.36,16.49c-2.58,6.37-6.88,16.93-11.34,27.91l27.34-3.35c3.32-8.11,5.8-14.19,5.8-14.19,0,0,.6-2.25,3-2.4,2.4-.15,14.25,0,14.25,0l-5.9,14.48,27.4-3.36c2.63-6.47,4.45-10.97,4.45-10.97h17.85l-3.51,8.67,27.25-3.34c6.49-15.99,12.12-29.93,12.12-29.93h-36.37Z"/>
      <path class="cls-1" d="M314.48,85.67h19.81s5.25-.3,7.35-4.05c.56-1.08,2.43-5.45,4.87-11.27l-26.25,1.14c-3.41,8.38-5.77,14.19-5.77,14.19Z"/>
      <path class="cls-1" d="M329.86,47.89c-3.07,7.55-6.15,15.11-8.74,21.47l26.35-1.31c2.94-7.06,6.51-15.72,9.61-23.25l-27.22,3.09Z"/>
      <path class="cls-1" d="M356.79,85.52l20.41.15s5.25-.9,6.75-3.6c.45-.81,2.76-6.31,5.77-13.59l-26.45,1.14-6.48,15.9Z"/>
      <path class="cls-1" d="M400.75,85.67h13.95s10.05-.9,15.45-9.15c.55-1.25,2.07-4.9,4.15-9.97l-26.27,1.14-7.28,17.98Z"/>
      <path class="cls-1" d="M374.17,42.86l-9.92,24.35,26.54-1.32c3.39-8.22,7.43-18.12,10.69-26.13l-27.3,3.1Z"/>
      <path class="cls-1" d="M173.35,76.71l26.62-1.32c.47-.9.64-1.47.64-1.47l4.87-11.91-27.29,3.1-4.85,11.61Z"/>
      <path class="cls-1" d="M223.38,18.29l-29.9,8.97-1.43,3.71c-.45,1.16-1.57,1.93-2.81,1.93h-14.56l-55.84,16.76-4.87,11.79,28.47-5.97.96-2.38h10.39l60.53-12.7,9.06-22.13Z"/>
      <polygon class="cls-1" points="106.31 80.05 133.12 78.72 136.69 69.81 109.25 72.93 106.31 80.05"/>
      <polygon class="cls-1" points="161.09 53.11 183.21 53.11 178.92 63.38 206.3 60.02 213.41 42.64 161.09 53.11"/>
      <path class="cls-1" d="M168.24,32.91h-16.34l2.53-6.13c.47-1.13,1.58-1.87,2.8-1.86l36.06.18,31.29-9.75L230.82.1h-51.14l-50.23,23.84-9.97,24.17,48.75-15.2Z"/>
      <polygon class="cls-1" points="109.68 71.87 137.22 68.49 141.85 56.97 113.49 62.65 109.68 71.87"/>
      <path class="cls-1" d="M169.61,85.67h9.4c12.3.03,17.88-5.46,20.18-8.95l-26.31,1.14-3.26,7.81Z"/>
      <path class="cls-1" d="M103.99,85.67h19.6c6.92,0,8.94-5.38,9.18-6.08l-26.75,1.16-2.03,4.92Z"/>
      <path class="cls-1" d="M154.4.1c-14.2,0-19.4,10.4-19.4,10.4l-4.76,11.54L175.36.1h-20.96Z"/>
      <polygon class="cls-1" points="214.34 74.67 240.98 73.35 247.58 57.23 220.18 60.34 214.34 74.67"/>
      <path class="cls-1" d="M275.31,85.67s2.1-.05,11.4-.05c14.1-.5,18.6-9.4,18.6-9.4l1.7-4.16-26.63,1.15-5.08,12.46Z"/>
      <path class="cls-1" d="M336.37.3s-12.45-.3-20.1-.3-9.3,7.5-9.3,7.5l-5.95,14.73,28.86-6.05,6.5-15.88Z"/>
      <path class="cls-1" d="M271.26.1s-5.4-.1-8.85,0c-13.54.08-19.58,7.03-21.63,10.2l30.16-9.4.33-.8Z"/>
      <polygon class="cls-1" points="282.52 53.26 288.51 53.26 281.14 71.35 307.85 70.02 316.27 49.43 282.52 53.26"/>
      <path class="cls-1" d="M209.89,85.62h16.95c10.35,0,11.55-5.95,11.55-5.95l1.93-4.73-26.56,1.15-3.88,9.53Z"/>
      <polygon class="cls-1" points="258.42 31.17 269.46 4.46 239.21 13.53 229.58 37.22 258.42 31.17"/>
      <path class="cls-1" d="M328.48,19.6l-28.72,5.75-2.09,5.18c-.46,1.14-1.57,1.89-2.79,1.89h-30.38l-35.88,7.18-7.57,18.62,27.52-3.38.64-1.57h12.15l56.17-6.89,10.95-26.77Z"/>
      <path class="cls-1" d="M.19,85.33l90.58-4.51c2.93-2.6,4.7-5.46,5.23-6.39L.46,85.28l-.27.05Z"/>
      <path class="cls-1" d="M.16,85.3l-.02.02v.02h0l-.13.34s67.37-.05,78.77,0c4.69.02,8.46-1.93,11.28-4.23L.19,85.33h-.01s.01,0,.01,0h-.05s.06,0,.06,0l.24-.05-.26.03.29-.04,99.61-20.89,4.13-10.32L.16,85.3Z"/>
      <polygon class="cls-1" points="96.42 73.5 99.66 65.41 .5 85.27 96.42 73.5"/>
      <path class="cls-1" d="M.16,85.3h.02s49.97-24.31,49.97-24.31c-10.35-.03-21.38-.06-27.85-.07L.16,85.3Z"/>
      <path class="cls-1" d="M28.87,52.96l19.18-21.59,2.66-6.46h3.08L75.86.06c-12.16,0-23.03,0-27.85.04-3.27.09-5.98.73-8.22,1.68L15.48,52.96h13.4Z"/>
      <path class="cls-1" d="M112.83,32.56h-1.54l-43,20.41h10.17l-3,8.1s-11.36-.03-24.09-.07L.18,85.29l104.58-32.6,8.07-20.14Z"/>
      <path class="cls-1" d="M37.41,2.97c-5.84,3.48-7.55,8.88-7.55,8.88L13.2,52.96h1.56L37.41,2.97Z"/>
      <path class="cls-1" d="M7.35,67.07L.32,84.87l9.68-21.37c-2,1.68-2.64,3.56-2.64,3.56Z"/>
      <path class="cls-1" d="M21.81,60.92c-1.7,0-3.06,0-3.95,0-3.21,0-5.5.9-7.11,2.01L.27,84.99l-.12.31h0s21.65-24.38,21.65-24.38Z"/>
      <polygon class="cls-1" points="108.61 32.56 48.06 32.56 29.52 52.96 66.66 52.96 108.61 32.56"/>
      <path class="cls-1" d="M111.18,24.91c5.4,0,7.5-6,7.5-6L126.48.1s-26.27-.04-48.91-.04l-22.57,24.85h56.17Z"/>
    </g>
  </g>
</svg>